<svg width="1368" height="944" viewBox="0 0 1368 944" fill="none" xmlns="http://www.w3.org/2000/svg">
<g clip-path="url(#clip0)">
<path d="M1559.82 728.59H1542.64V688.526C1542.64 679.712 1534.91 672.5 1525.47 672.5H1473.93V584.359C1473.93 540.208 1435.37 504.231 1388.04 504.231H1207.68V469.856C1232.5 462.965 1250.62 441.49 1250.62 416.09C1250.62 385.16 1223.65 360 1190.5 360C1157.35 360 1130.38 385.16 1130.38 416.09C1130.38 441.41 1148.5 462.885 1173.32 469.856V504.231H992.956C945.631 504.231 907.067 540.208 907.067 584.359V672.5H855.533C846.086 672.5 838.356 679.712 838.356 688.526V728.59H821.178C811.73 728.59 804 735.801 804 744.615C804 753.429 811.73 760.641 821.178 760.641H838.356V800.705C838.356 809.519 846.086 816.731 855.533 816.731H907.067V904.872C907.067 949.022 945.631 985 992.956 985H1388.04C1435.37 985 1473.93 949.022 1473.93 904.872V816.731H1525.47C1534.91 816.731 1542.64 809.519 1542.64 800.705V760.641H1559.82C1569.27 760.641 1577 753.429 1577 744.615C1577 735.801 1569.27 728.59 1559.82 728.59ZM1164.73 416.09C1164.73 402.869 1176.33 392.051 1190.5 392.051C1204.67 392.051 1216.27 402.869 1216.27 416.09C1216.27 429.311 1204.67 440.128 1190.5 440.128C1176.33 440.128 1164.73 429.311 1164.73 416.09ZM872.711 784.679V704.551H907.067V784.679H872.711ZM1439.58 904.872C1439.58 931.394 1416.47 952.949 1388.04 952.949H992.956C964.526 952.949 941.422 931.394 941.422 904.872V800.705V688.526V584.359C941.422 557.837 964.526 536.282 992.956 536.282H1388.04C1416.47 536.282 1439.58 557.837 1439.58 584.359V688.526V800.705V904.872ZM1508.29 784.679H1473.93V704.551H1508.29V784.679ZM1164.73 664.487C1164.73 620.337 1126.17 584.359 1078.84 584.359C1031.52 584.359 992.956 620.337 992.956 664.487C992.956 708.638 1031.52 744.615 1078.84 744.615C1126.17 744.615 1164.73 708.638 1164.73 664.487ZM1078.84 712.564C1050.42 712.564 1027.31 691.01 1027.31 664.487C1027.31 637.965 1050.42 616.41 1078.84 616.41C1107.27 616.41 1130.38 637.965 1130.38 664.487C1130.38 691.01 1107.27 712.564 1078.84 712.564ZM1302.16 584.359C1254.83 584.359 1216.27 620.337 1216.27 664.487C1216.27 708.638 1254.83 744.615 1302.16 744.615C1349.48 744.615 1388.04 708.638 1388.04 664.487C1388.04 620.337 1349.48 584.359 1302.16 584.359ZM1302.16 712.564C1273.73 712.564 1250.62 691.01 1250.62 664.487C1250.62 637.965 1273.73 616.41 1302.16 616.41C1330.58 616.41 1353.69 637.965 1353.69 664.487C1353.69 691.01 1330.58 712.564 1302.16 712.564ZM1276.39 840.769C1276.39 849.583 1268.66 856.795 1259.21 856.795H1121.79C1112.34 856.795 1104.61 849.583 1104.61 840.769C1104.61 831.955 1112.34 824.744 1121.79 824.744H1259.21C1268.66 824.744 1276.39 831.955 1276.39 840.769ZM1173.32 776.667V744.615C1173.32 735.801 1181.05 728.59 1190.5 728.59C1199.95 728.59 1207.68 735.801 1207.68 744.615V776.667C1207.68 785.481 1199.95 792.692 1190.5 792.692C1181.05 792.692 1173.32 785.481 1173.32 776.667ZM1202.61 893.574C1205.87 896.538 1207.68 900.625 1207.68 904.872C1207.68 907.035 1207.25 909.038 1206.39 911.042C1205.53 912.965 1204.24 914.728 1202.61 916.17C1201.06 917.692 1199.17 918.894 1197.11 919.696C1194.97 920.497 1192.82 920.897 1190.5 920.897C1185.95 920.897 1181.57 919.215 1178.39 916.17C1176.76 914.728 1175.47 912.965 1174.61 911.042C1173.75 909.038 1173.32 907.035 1173.32 904.872C1173.32 903.83 1173.41 902.788 1173.67 901.747C1173.84 900.705 1174.18 899.664 1174.61 898.702C1175.04 897.74 1175.64 896.859 1176.24 895.978C1176.84 895.096 1177.53 894.295 1178.39 893.574C1182.34 889.808 1188.27 888.125 1193.85 889.167C1194.97 889.327 1196 889.647 1197.03 890.048C1198.14 890.449 1199.09 891.01 1200.03 891.571C1200.98 892.131 1201.84 892.772 1202.61 893.574Z" fill="white"/>
<path d="M107.167 67.9878C109.183 62.6707 116.812 62.6707 118.834 67.9878L131.875 104.111C132.788 106.505 135.113 108.099 137.708 108.099H169.755C175.677 108.099 178.26 115.47 173.604 119.08L150.799 139.599C149.778 140.384 149.031 141.473 148.667 142.709C148.302 143.945 148.339 145.264 148.771 146.478L157.099 181.777C159.127 187.447 152.563 192.316 147.599 188.826L116.623 169.171C115.562 168.425 114.297 168.025 113.001 168.025C111.704 168.025 110.439 168.425 109.378 169.171L78.4027 188.826C73.4448 192.316 66.8742 187.44 68.9027 181.777L77.231 146.478C77.663 145.264 77.6994 143.945 77.335 142.709C76.9705 141.473 76.224 140.384 75.2024 139.599L52.3975 119.08C47.7357 115.47 50.3311 108.099 56.2403 108.099H88.287C89.5487 108.104 90.7821 107.725 91.8237 107.012C92.8654 106.3 93.6663 105.289 94.1205 104.111L107.161 67.9878H107.167Z" stroke="white" stroke-width="13" stroke-linecap="round" stroke-linejoin="round"/>
<path d="M255.167 862.988C257.183 857.671 264.812 857.671 266.834 862.988L279.875 899.111C280.788 901.505 283.113 903.099 285.708 903.099H317.755C323.677 903.099 326.26 910.47 321.604 914.08L298.799 934.599C297.778 935.384 297.031 936.473 296.667 937.709C296.302 938.945 296.339 940.264 296.771 941.478L305.099 976.777C307.127 982.447 300.563 987.316 295.599 983.826L264.623 964.171C263.562 963.425 262.297 963.025 261.001 963.025C259.704 963.025 258.439 963.425 257.378 964.171L226.403 983.826C221.445 987.316 214.874 982.44 216.903 976.777L225.231 941.478C225.663 940.264 225.699 938.945 225.335 937.709C224.971 936.473 224.224 935.384 223.202 934.599L200.397 914.08C195.736 910.47 198.331 903.099 204.24 903.099H236.287C237.549 903.104 238.782 902.725 239.824 902.012C240.865 901.3 241.666 900.289 242.121 899.111L255.161 862.988H255.167Z" stroke="white" stroke-width="13" stroke-linecap="round" stroke-linejoin="round"/>
</g>
<defs>
<clipPath id="clip0">
<rect width="1368" height="944" fill="white"/>
</clipPath>
</defs>
</svg>
