<svg width="2714" height="691" viewBox="0 0 2714 691" fill="none" xmlns="http://www.w3.org/2000/svg">
<ellipse cx="528.014" cy="416.594" rx="233.838" ry="181.344" transform="rotate(-29.7255 528.014 416.594)" fill="#2B62C3" fill-opacity="0.8"/>
<ellipse cx="122.002" cy="444.912" rx="143.937" ry="95.281" transform="rotate(-101.471 122.002 444.912)" fill="#F9C10C" fill-opacity="0.8"/>
<ellipse cx="360.741" cy="391.371" rx="233.838" ry="248.256" transform="rotate(-78.0965 360.741 391.371)" fill="#F44A6E" fill-opacity="0.8"/>
<circle cx="118.459" cy="141.2" r="33.7843" fill="#F44A6E"/>
<ellipse rx="21.6566" ry="22.5229" transform="matrix(-1 0 0 1 257.062 22.5229)" fill="#F9C10C"/>
<circle r="68.4349" transform="matrix(-1 0 0 1 551.592 68.4349)" fill="#2B62C3"/>
<path d="M448.636 312.37H402.677L430.904 235.432H403.696L375.57 312.37H337.662L309.434 235.432H282.735L310.963 312.37H259.297C252.207 312.37 245.405 315.179 240.382 320.183C235.359 325.188 232.523 331.978 232.496 339.069V509.046C232.496 512.565 233.189 516.05 234.536 519.302C235.883 522.553 237.857 525.508 240.346 527.997C242.835 530.485 245.789 532.459 249.041 533.806C252.292 535.153 255.777 535.846 259.297 535.846H448.636C455.681 535.766 462.409 532.903 467.353 527.883C472.297 522.863 475.056 516.092 475.029 509.046V339.069C475.03 332.04 472.259 325.295 467.318 320.297C462.376 315.299 455.664 312.45 448.636 312.37V312.37ZM448.636 339.069V509.046H259.297V339.069H448.636Z" fill="white"/>
<path d="M220.367 380.35H193.668V469.414H220.367V380.35Z" fill="white"/>
<path d="M511.816 380.35H485.117V469.414H511.816V380.35Z" fill="white"/>
<path d="M309.429 390.129C311.878 389.944 314.338 390.266 316.656 391.075C318.974 391.885 321.1 393.164 322.901 394.834C324.702 396.503 326.138 398.526 327.12 400.777C328.103 403.027 328.61 405.456 328.61 407.911C328.61 410.367 328.103 412.796 327.12 415.046C326.138 417.296 324.702 419.32 322.901 420.989C321.1 422.658 318.974 423.938 316.656 424.748C314.338 425.557 311.878 425.879 309.429 425.694V425.694C306.981 425.879 304.521 425.557 302.203 424.748C299.884 423.938 297.759 422.658 295.958 420.989C294.157 419.32 292.721 417.296 291.738 415.046C290.756 412.796 290.249 410.367 290.249 407.911C290.249 405.456 290.756 403.027 291.738 400.777C292.721 398.526 294.157 396.503 295.958 394.834C297.759 393.164 299.884 391.885 302.203 391.075C304.521 390.266 306.981 389.944 309.429 390.129Z" fill="white"/>
<path d="M398.496 390.129C400.945 389.944 403.405 390.266 405.723 391.075C408.041 391.885 410.167 393.164 411.968 394.834C413.768 396.503 415.205 398.526 416.187 400.777C417.17 403.027 417.677 405.456 417.677 407.911C417.677 410.367 417.17 412.796 416.187 415.046C415.205 417.296 413.768 419.32 411.968 420.989C410.167 422.658 408.041 423.938 405.723 424.748C403.405 425.557 400.945 425.879 398.496 425.694V425.694C396.048 425.879 393.588 425.557 391.269 424.748C388.951 423.938 386.825 422.658 385.025 420.989C383.224 419.32 381.788 417.296 380.805 415.046C379.823 412.796 379.316 410.367 379.316 407.911C379.316 405.456 379.823 403.027 380.805 400.777C381.788 398.526 383.224 396.503 385.025 394.834C386.825 393.164 388.951 391.885 391.269 391.075C393.588 390.266 396.048 389.944 398.496 390.129Z" fill="white"/>
<path d="M890.25 398C887.917 398 885.817 397.183 883.95 395.55C882.317 393.683 881.5 391.583 881.5 389.25V161.75C881.5 159.183 882.317 157.083 883.95 155.45C885.817 153.817 887.917 153 890.25 153H985.45C1016.02 153 1039.82 160 1056.85 174C1074.12 187.767 1082.75 207.367 1082.75 232.8C1082.75 249.133 1078.9 263.017 1071.2 274.45C1063.5 285.883 1052.88 294.633 1039.35 300.7L1087.3 386.8C1088 388.2 1088.35 389.483 1088.35 390.65C1088.35 392.517 1087.53 394.267 1085.9 395.9C1084.5 397.3 1082.87 398 1081 398H1034.45C1027.68 398 1022.9 394.85 1020.1 388.55L980.2 311.55H944.5V389.25C944.5 391.817 943.567 393.917 941.7 395.55C940.067 397.183 937.967 398 935.4 398H890.25ZM984.75 261.85C995.483 261.85 1003.65 259.283 1009.25 254.15C1014.85 248.783 1017.65 241.433 1017.65 232.1C1017.65 222.767 1014.85 215.417 1009.25 210.05C1003.88 204.45 995.717 201.65 984.75 201.65H944.5V261.85H984.75ZM1203.35 401.5C1174.42 401.5 1152.13 394.617 1136.5 380.85C1120.87 367.083 1112.35 347.717 1110.95 322.75C1110.72 319.717 1110.6 314.467 1110.6 307C1110.6 299.533 1110.72 294.283 1110.95 291.25C1112.35 266.517 1121.1 247.267 1137.2 233.5C1153.3 219.5 1175.35 212.5 1203.35 212.5C1231.58 212.5 1253.75 219.5 1269.85 233.5C1285.95 247.267 1294.7 266.517 1296.1 291.25C1296.33 294.283 1296.45 299.533 1296.45 307C1296.45 314.467 1296.33 319.717 1296.1 322.75C1294.7 347.717 1286.18 367.083 1270.55 380.85C1254.92 394.617 1232.52 401.5 1203.35 401.5ZM1203.35 358.8C1213.62 358.8 1221.2 355.767 1226.1 349.7C1231 343.4 1233.8 333.833 1234.5 321C1234.73 318.667 1234.85 314 1234.85 307C1234.85 300 1234.73 295.333 1234.5 293C1233.8 280.4 1230.88 270.95 1225.75 264.65C1220.85 258.35 1213.38 255.2 1203.35 255.2C1183.98 255.2 1173.72 267.8 1172.55 293L1172.2 307L1172.55 321C1173.02 333.833 1175.7 343.4 1180.6 349.7C1185.73 355.767 1193.32 358.8 1203.35 358.8ZM1442.51 401.5C1419.18 401.5 1401.1 393.683 1388.26 378.05V389.25C1388.26 391.583 1387.45 393.683 1385.81 395.55C1384.18 397.183 1382.08 398 1379.51 398H1339.96C1337.63 398 1335.53 397.183 1333.66 395.55C1332.03 393.683 1331.21 391.583 1331.21 389.25V158.25C1331.21 155.683 1332.03 153.583 1333.66 151.95C1335.53 150.317 1337.63 149.5 1339.96 149.5H1382.66C1385.23 149.5 1387.33 150.317 1388.96 151.95C1390.6 153.583 1391.41 155.683 1391.41 158.25V233.15C1404.48 219.383 1421.51 212.5 1442.51 212.5C1465.15 212.5 1483 219.85 1496.06 234.55C1509.13 249.25 1516.13 269.2 1517.06 294.4C1517.3 297.433 1517.41 301.633 1517.41 307C1517.41 312.133 1517.3 316.217 1517.06 319.25C1515.9 345.383 1508.9 365.683 1496.06 380.15C1483.23 394.383 1465.38 401.5 1442.51 401.5ZM1423.61 354.6C1434.58 354.6 1442.4 351.333 1447.06 344.8C1451.96 338.267 1454.76 329.283 1455.46 317.85C1455.93 313.183 1456.16 309.567 1456.16 307C1456.16 304.433 1455.93 300.817 1455.46 296.15C1454.76 284.717 1451.96 275.733 1447.06 269.2C1442.4 262.667 1434.58 259.4 1423.61 259.4C1413.35 259.4 1405.53 262.55 1400.16 268.85C1394.8 275.15 1391.88 283.083 1391.41 292.65L1391.06 305.6L1391.41 318.9C1392.11 329.4 1394.91 338.033 1399.81 344.8C1404.95 351.333 1412.88 354.6 1423.61 354.6ZM1638.12 401.5C1609.18 401.5 1586.9 394.617 1571.27 380.85C1555.63 367.083 1547.12 347.717 1545.72 322.75C1545.48 319.717 1545.37 314.467 1545.37 307C1545.37 299.533 1545.48 294.283 1545.72 291.25C1547.12 266.517 1555.87 247.267 1571.97 233.5C1588.07 219.5 1610.12 212.5 1638.12 212.5C1666.35 212.5 1688.52 219.5 1704.62 233.5C1720.72 247.267 1729.47 266.517 1730.87 291.25C1731.1 294.283 1731.22 299.533 1731.22 307C1731.22 314.467 1731.1 319.717 1730.87 322.75C1729.47 347.717 1720.95 367.083 1705.32 380.85C1689.68 394.617 1667.28 401.5 1638.12 401.5ZM1638.12 358.8C1648.38 358.8 1655.97 355.767 1660.87 349.7C1665.77 343.4 1668.57 333.833 1669.27 321C1669.5 318.667 1669.62 314 1669.62 307C1669.62 300 1669.5 295.333 1669.27 293C1668.57 280.4 1665.65 270.95 1660.52 264.65C1655.62 258.35 1648.15 255.2 1638.12 255.2C1618.75 255.2 1608.48 267.8 1607.32 293L1606.97 307L1607.32 321C1607.78 333.833 1610.47 343.4 1615.37 349.7C1620.5 355.767 1628.08 358.8 1638.12 358.8ZM1801.72 398C1799.39 398 1797.29 397.183 1795.42 395.55C1793.79 393.683 1792.97 391.583 1792.97 389.25V207.95H1730.67C1728.34 207.95 1726.24 207.133 1724.37 205.5C1722.74 203.633 1721.92 201.533 1721.92 199.2V161.75C1721.92 159.183 1722.74 157.083 1724.37 155.45C1726.24 153.817 1728.34 153 1730.67 153H1918.97C1921.54 153 1923.64 153.817 1925.27 155.45C1926.9 157.083 1927.72 159.183 1927.72 161.75V199.2C1927.72 201.767 1926.9 203.867 1925.27 205.5C1923.64 207.133 1921.54 207.95 1918.97 207.95H1856.67V389.25C1856.67 391.583 1855.85 393.683 1854.22 395.55C1852.59 397.183 1850.49 398 1847.92 398H1801.72ZM2008.92 401.5C1980.92 401.5 1958.87 393.917 1942.77 378.75C1926.67 363.583 1918.27 341.533 1917.57 312.6V300.35C1918.5 272.817 1927.02 251.35 1943.12 235.95C1959.45 220.317 1981.27 212.5 2008.57 212.5C2028.4 212.5 2045.08 216.583 2058.62 224.75C2072.38 232.683 2082.65 243.65 2089.42 257.65C2096.42 271.65 2099.92 287.75 2099.92 305.95V314.35C2099.92 316.683 2099.1 318.783 2097.47 320.65C2095.83 322.283 2093.73 323.1 2091.17 323.1H1979.17V325.55C1979.63 336.517 1982.32 345.383 1987.22 352.15C1992.12 358.917 1999.23 362.3 2008.57 362.3C2014.4 362.3 2019.18 361.133 2022.92 358.8C2026.65 356.233 2030.03 353.2 2033.07 349.7C2035.17 347.133 2036.8 345.617 2037.97 345.15C2039.37 344.45 2041.47 344.1 2044.27 344.1H2087.67C2089.77 344.1 2091.52 344.8 2092.92 346.2C2094.55 347.367 2095.37 349 2095.37 351.1C2095.37 357.167 2091.87 364.167 2084.87 372.1C2078.1 380.033 2068.18 386.917 2055.12 392.75C2042.05 398.583 2026.65 401.5 2008.92 401.5ZM2038.32 288.45V287.75C2038.32 276.317 2035.63 267.333 2030.27 260.8C2025.13 254.033 2017.9 250.65 2008.57 250.65C1999.47 250.65 1992.23 254.033 1986.87 260.8C1981.73 267.333 1979.17 276.317 1979.17 287.75V288.45H2038.32ZM2216.38 401.5C2190.01 401.5 2168.66 394.5 2152.33 380.5C2135.99 366.267 2127.24 346.55 2126.08 321.35L2125.73 307.35L2126.08 293C2127.01 267.8 2135.64 248.083 2151.98 233.85C2168.54 219.617 2190.01 212.5 2216.38 212.5C2236.21 212.5 2252.89 216.117 2266.43 223.35C2280.19 230.35 2290.34 238.867 2296.88 248.9C2303.64 258.7 2307.26 267.683 2307.73 275.85C2307.96 278.183 2307.14 280.283 2305.28 282.15C2303.64 283.783 2301.54 284.6 2298.98 284.6H2254.53C2251.96 284.6 2249.98 284.017 2248.58 282.85C2247.18 281.683 2245.89 279.933 2244.73 277.6C2241.93 270.367 2238.31 265.233 2233.88 262.2C2229.68 259.167 2224.19 257.65 2217.43 257.65C2198.29 257.65 2188.38 270.017 2187.68 294.75L2187.33 308.05L2187.68 319.6C2188.14 332.2 2190.83 341.533 2195.73 347.6C2200.86 353.433 2208.09 356.35 2217.43 356.35C2224.66 356.35 2230.38 354.833 2234.58 351.8C2238.78 348.767 2242.16 343.633 2244.73 336.4C2245.89 334.067 2247.18 332.317 2248.58 331.15C2249.98 329.983 2251.96 329.4 2254.53 329.4H2298.98C2301.31 329.4 2303.29 330.217 2304.93 331.85C2306.79 333.25 2307.73 335.117 2307.73 337.45C2307.73 344.917 2304.46 353.667 2297.93 363.7C2291.63 373.733 2281.59 382.6 2267.83 390.3C2254.06 397.767 2236.91 401.5 2216.38 401.5ZM2347.92 398C2345.59 398 2343.49 397.183 2341.62 395.55C2339.99 393.683 2339.17 391.583 2339.17 389.25V158.25C2339.17 155.683 2339.99 153.583 2341.62 151.95C2343.49 150.317 2345.59 149.5 2347.92 149.5H2392.72C2395.29 149.5 2397.39 150.317 2399.02 151.95C2400.66 153.583 2401.47 155.683 2401.47 158.25V236.3C2415.47 220.433 2433.91 212.5 2456.77 212.5C2470.31 212.5 2482.32 215.533 2492.82 221.6C2503.56 227.667 2511.96 236.65 2518.02 248.55C2524.09 260.45 2527.12 274.8 2527.12 291.6V389.25C2527.12 391.583 2526.31 393.683 2524.67 395.55C2523.04 397.183 2520.94 398 2518.37 398H2473.22C2470.89 398 2468.79 397.183 2466.92 395.55C2465.29 393.683 2464.47 391.583 2464.47 389.25V293.7C2464.47 282.733 2461.79 274.333 2456.42 268.5C2451.29 262.433 2443.71 259.4 2433.67 259.4C2423.64 259.4 2415.71 262.433 2409.87 268.5C2404.27 274.333 2401.47 282.733 2401.47 293.7V389.25C2401.47 391.817 2400.66 393.917 2399.02 395.55C2397.39 397.183 2395.29 398 2392.72 398H2347.92Z" fill="#353535"/>
<path d="M2573.81 398C2571.48 398 2569.38 397.183 2567.51 395.55C2565.88 393.683 2565.06 391.583 2565.06 389.25V344.8C2565.06 342.233 2565.88 340.133 2567.51 338.5C2569.38 336.867 2571.48 336.05 2573.81 336.05H2618.26C2620.83 336.05 2622.93 336.867 2624.56 338.5C2626.19 340.133 2627.01 342.233 2627.01 344.8V389.25C2627.01 391.583 2626.19 393.683 2624.56 395.55C2622.93 397.183 2620.83 398 2618.26 398H2573.81Z" fill="#F9C10C"/>
<path d="M909.7 556.3H901.3V584H888.1V514.9H908.7C926.967 514.9 936.1 521.667 936.1 535.2C936.1 539.8 934.967 543.6 932.7 546.6C930.433 549.6 926.9 552.033 922.1 553.9L940.2 584H925L909.7 556.3ZM901.3 546.8H909.5C913.7 546.8 916.867 545.9 919 544.1C921.2 542.233 922.3 539.267 922.3 535.2C922.3 531.467 921.167 528.767 918.9 527.1C916.7 525.367 913.2 524.5 908.4 524.5H901.3V546.8ZM981.659 513.4C987.859 513.4 993.225 514.8 997.759 517.6C1002.29 520.4 1005.76 524.5 1008.16 529.9C1010.63 535.3 1011.86 541.8 1011.86 549.4C1011.86 556.933 1010.63 563.4 1008.16 568.8C1005.69 574.2 1002.19 578.333 997.659 581.2C993.125 584.067 987.792 585.5 981.659 585.5C975.459 585.5 970.092 584.1 965.559 581.3C961.025 578.5 957.525 574.4 955.059 569C952.592 563.6 951.359 557.1 951.359 549.5C951.359 542.033 952.592 535.6 955.059 530.2C957.525 524.733 961.025 520.567 965.559 517.7C970.159 514.833 975.525 513.4 981.659 513.4ZM981.659 523.5C976.325 523.5 972.259 525.6 969.459 529.8C966.659 533.933 965.259 540.5 965.259 549.5C965.259 566.767 970.725 575.4 981.659 575.4C986.992 575.4 991.025 573.333 993.759 569.2C996.559 565.067 997.959 558.467 997.959 549.4C997.959 540.4 996.559 533.833 993.759 529.7C991.025 525.567 986.992 523.5 981.659 523.5ZM1065.2 547.4C1069.93 548.267 1073.73 549.967 1076.6 552.5C1079.53 555.033 1081 558.9 1081 564.1C1081 571.3 1078.47 576.433 1073.4 579.5C1068.33 582.5 1061.23 584 1052.1 584H1031.3V514.9H1049.4C1068.47 514.9 1078 520.767 1078 532.5C1078 536.567 1076.77 539.9 1074.3 542.5C1071.83 545.033 1068.8 546.667 1065.2 547.4ZM1044.5 524.6V543.3H1052.6C1056.27 543.3 1059.17 542.5 1061.3 540.9C1063.43 539.233 1064.5 536.8 1064.5 533.6C1064.5 530.267 1063.37 527.933 1061.1 526.6C1058.9 525.267 1055.43 524.6 1050.7 524.6H1044.5ZM1052.2 574.1C1057.07 574.1 1060.77 573.367 1063.3 571.9C1065.9 570.433 1067.2 567.667 1067.2 563.6C1067.2 559.667 1065.97 556.833 1063.5 555.1C1061.1 553.367 1057.8 552.5 1053.6 552.5H1044.5V574.1H1052.2ZM1126.13 513.4C1132.33 513.4 1137.69 514.8 1142.23 517.6C1146.76 520.4 1150.23 524.5 1152.63 529.9C1155.09 535.3 1156.33 541.8 1156.33 549.4C1156.33 556.933 1155.09 563.4 1152.63 568.8C1150.16 574.2 1146.66 578.333 1142.13 581.2C1137.59 584.067 1132.26 585.5 1126.13 585.5C1119.93 585.5 1114.56 584.1 1110.03 581.3C1105.49 578.5 1101.99 574.4 1099.53 569C1097.06 563.6 1095.83 557.1 1095.83 549.5C1095.83 542.033 1097.06 535.6 1099.53 530.2C1101.99 524.733 1105.49 520.567 1110.03 517.7C1114.63 514.833 1119.99 513.4 1126.13 513.4ZM1126.13 523.5C1120.79 523.5 1116.73 525.6 1113.93 529.8C1111.13 533.933 1109.73 540.5 1109.73 549.5C1109.73 566.767 1115.19 575.4 1126.13 575.4C1131.46 575.4 1135.49 573.333 1138.23 569.2C1141.03 565.067 1142.43 558.467 1142.43 549.4C1142.43 540.4 1141.03 533.833 1138.23 529.7C1135.49 525.567 1131.46 523.5 1126.13 523.5ZM1216.65 514.9L1215.25 525.4H1197.25V584H1183.95V525.4H1165.35V514.9H1216.65ZM1245.48 514.9V584H1232.28V514.9H1245.48ZM1295.07 513.4C1299.27 513.4 1302.94 514 1306.07 515.2C1309.21 516.4 1312.27 518.233 1315.27 520.7L1308.57 528.5C1304.51 525.233 1300.24 523.6 1295.77 523.6C1290.64 523.6 1286.51 525.667 1283.37 529.8C1280.31 533.933 1278.77 540.433 1278.77 549.3C1278.77 557.967 1280.31 564.4 1283.37 568.6C1286.44 572.8 1290.57 574.9 1295.77 574.9C1298.51 574.9 1300.94 574.433 1303.07 573.5C1305.21 572.5 1307.47 571.1 1309.87 569.3L1316.07 577.1C1313.74 579.5 1310.77 581.5 1307.17 583.1C1303.64 584.7 1299.67 585.5 1295.27 585.5C1289.27 585.5 1283.97 584.1 1279.37 581.3C1274.77 578.5 1271.21 574.4 1268.67 569C1266.14 563.533 1264.87 556.967 1264.87 549.3C1264.87 541.767 1266.17 535.3 1268.77 529.9C1271.44 524.5 1275.04 520.4 1279.57 517.6C1284.17 514.8 1289.34 513.4 1295.07 513.4ZM1351.43 513.4C1356.3 513.4 1360.53 514.1 1364.13 515.5C1367.73 516.9 1371.1 519.033 1374.23 521.9L1367.73 529.4C1365.27 527.333 1362.77 525.833 1360.23 524.9C1357.77 523.967 1355.1 523.5 1352.23 523.5C1349.03 523.5 1346.43 524.233 1344.43 525.7C1342.5 527.1 1341.53 529.1 1341.53 531.7C1341.53 533.433 1341.9 534.867 1342.63 536C1343.43 537.133 1344.83 538.2 1346.83 539.2C1348.83 540.2 1351.8 541.3 1355.73 542.5C1362.53 544.633 1367.63 547.3 1371.03 550.5C1374.5 553.633 1376.23 558.233 1376.23 564.3C1376.23 568.433 1375.17 572.1 1373.03 575.3C1370.97 578.5 1367.97 581 1364.03 582.8C1360.1 584.6 1355.43 585.5 1350.03 585.5C1344.77 585.5 1340.03 584.667 1335.83 583C1331.7 581.267 1328.13 578.933 1325.13 576L1331.93 568.4C1334.6 570.667 1337.37 572.4 1340.23 573.6C1343.1 574.733 1346.27 575.3 1349.73 575.3C1353.53 575.3 1356.6 574.4 1358.93 572.6C1361.27 570.8 1362.43 568.267 1362.43 565C1362.43 563 1362.03 561.367 1361.23 560.1C1360.43 558.767 1359.07 557.6 1357.13 556.6C1355.2 555.533 1352.4 554.433 1348.73 553.3C1341.4 551.033 1336.1 548.3 1332.83 545.1C1329.57 541.9 1327.93 537.7 1327.93 532.5C1327.93 528.7 1328.93 525.367 1330.93 522.5C1332.93 519.633 1335.7 517.4 1339.23 515.8C1342.83 514.2 1346.9 513.4 1351.43 513.4ZM1452.89 513.4C1457.09 513.4 1460.76 514 1463.89 515.2C1467.02 516.4 1470.09 518.233 1473.09 520.7L1466.39 528.5C1462.32 525.233 1458.06 523.6 1453.59 523.6C1448.46 523.6 1444.32 525.667 1441.19 529.8C1438.12 533.933 1436.59 540.433 1436.59 549.3C1436.59 557.967 1438.12 564.4 1441.19 568.6C1444.26 572.8 1448.39 574.9 1453.59 574.9C1456.32 574.9 1458.76 574.433 1460.89 573.5C1463.02 572.5 1465.29 571.1 1467.69 569.3L1473.89 577.1C1471.56 579.5 1468.59 581.5 1464.99 583.1C1461.46 584.7 1457.49 585.5 1453.09 585.5C1447.09 585.5 1441.79 584.1 1437.19 581.3C1432.59 578.5 1429.02 574.4 1426.49 569C1423.96 563.533 1422.69 556.967 1422.69 549.3C1422.69 541.767 1423.99 535.3 1426.59 529.9C1429.26 524.5 1432.86 520.4 1437.39 517.6C1441.99 514.8 1447.16 513.4 1452.89 513.4ZM1514.87 513.4C1521.07 513.4 1526.44 514.8 1530.97 517.6C1535.51 520.4 1538.97 524.5 1541.37 529.9C1543.84 535.3 1545.07 541.8 1545.07 549.4C1545.07 556.933 1543.84 563.4 1541.37 568.8C1538.91 574.2 1535.41 578.333 1530.87 581.2C1526.34 584.067 1521.01 585.5 1514.87 585.5C1508.67 585.5 1503.31 584.1 1498.77 581.3C1494.24 578.5 1490.74 574.4 1488.27 569C1485.81 563.6 1484.57 557.1 1484.57 549.5C1484.57 542.033 1485.81 535.6 1488.27 530.2C1490.74 524.733 1494.24 520.567 1498.77 517.7C1503.37 514.833 1508.74 513.4 1514.87 513.4ZM1514.87 523.5C1509.54 523.5 1505.47 525.6 1502.67 529.8C1499.87 533.933 1498.47 540.5 1498.47 549.5C1498.47 566.767 1503.94 575.4 1514.87 575.4C1520.21 575.4 1524.24 573.333 1526.97 569.2C1529.77 565.067 1531.17 558.467 1531.17 549.4C1531.17 540.4 1529.77 533.833 1526.97 529.7C1524.24 525.567 1520.21 523.5 1514.87 523.5ZM1614.91 561.4C1614.91 566.067 1613.91 570.233 1611.91 573.9C1609.98 577.5 1607.05 580.333 1603.11 582.4C1599.25 584.467 1594.58 585.5 1589.11 585.5C1580.85 585.5 1574.51 583.333 1570.11 579C1565.71 574.6 1563.51 568.733 1563.51 561.4V514.9H1576.71V560.7C1576.71 565.567 1577.71 569.2 1579.71 571.6C1581.78 574 1584.91 575.2 1589.11 575.2C1593.38 575.2 1596.51 574 1598.51 571.6C1600.58 569.2 1601.61 565.567 1601.61 560.7V514.9H1614.91V561.4ZM1658.74 556.3H1650.34V584H1637.14V514.9H1657.74C1676.01 514.9 1685.14 521.667 1685.14 535.2C1685.14 539.8 1684.01 543.6 1681.74 546.6C1679.47 549.6 1675.94 552.033 1671.14 553.9L1689.24 584H1674.04L1658.74 556.3ZM1650.34 546.8H1658.54C1662.74 546.8 1665.91 545.9 1668.04 544.1C1670.24 542.233 1671.34 539.267 1671.34 535.2C1671.34 531.467 1670.21 528.767 1667.94 527.1C1665.74 525.367 1662.24 524.5 1657.44 524.5H1650.34V546.8ZM1724.39 513.4C1729.26 513.4 1733.49 514.1 1737.09 515.5C1740.69 516.9 1744.06 519.033 1747.19 521.9L1740.69 529.4C1738.22 527.333 1735.72 525.833 1733.19 524.9C1730.72 523.967 1728.06 523.5 1725.19 523.5C1721.99 523.5 1719.39 524.233 1717.39 525.7C1715.46 527.1 1714.49 529.1 1714.49 531.7C1714.49 533.433 1714.86 534.867 1715.59 536C1716.39 537.133 1717.79 538.2 1719.79 539.2C1721.79 540.2 1724.76 541.3 1728.69 542.5C1735.49 544.633 1740.59 547.3 1743.99 550.5C1747.46 553.633 1749.19 558.233 1749.19 564.3C1749.19 568.433 1748.12 572.1 1745.99 575.3C1743.92 578.5 1740.92 581 1736.99 582.8C1733.06 584.6 1728.39 585.5 1722.99 585.5C1717.72 585.5 1712.99 584.667 1708.79 583C1704.66 581.267 1701.09 578.933 1698.09 576L1704.89 568.4C1707.56 570.667 1710.32 572.4 1713.19 573.6C1716.06 574.733 1719.22 575.3 1722.69 575.3C1726.49 575.3 1729.56 574.4 1731.89 572.6C1734.22 570.8 1735.39 568.267 1735.39 565C1735.39 563 1734.99 561.367 1734.19 560.1C1733.39 558.767 1732.02 557.6 1730.09 556.6C1728.16 555.533 1725.36 554.433 1721.69 553.3C1714.36 551.033 1709.06 548.3 1705.79 545.1C1702.52 541.9 1700.89 537.7 1700.89 532.5C1700.89 528.7 1701.89 525.367 1703.89 522.5C1705.89 519.633 1708.66 517.4 1712.19 515.8C1715.79 514.2 1719.86 513.4 1724.39 513.4ZM1807.55 514.9L1806.15 524.7H1780.65V544H1802.85V553.8H1780.65V574.1H1807.95V584H1767.45V514.9H1807.55ZM1846.4 513.4C1851.27 513.4 1855.5 514.1 1859.1 515.5C1862.7 516.9 1866.07 519.033 1869.2 521.9L1862.7 529.4C1860.23 527.333 1857.73 525.833 1855.2 524.9C1852.73 523.967 1850.07 523.5 1847.2 523.5C1844 523.5 1841.4 524.233 1839.4 525.7C1837.47 527.1 1836.5 529.1 1836.5 531.7C1836.5 533.433 1836.87 534.867 1837.6 536C1838.4 537.133 1839.8 538.2 1841.8 539.2C1843.8 540.2 1846.77 541.3 1850.7 542.5C1857.5 544.633 1862.6 547.3 1866 550.5C1869.47 553.633 1871.2 558.233 1871.2 564.3C1871.2 568.433 1870.13 572.1 1868 575.3C1865.93 578.5 1862.93 581 1859 582.8C1855.07 584.6 1850.4 585.5 1845 585.5C1839.73 585.5 1835 584.667 1830.8 583C1826.67 581.267 1823.1 578.933 1820.1 576L1826.9 568.4C1829.57 570.667 1832.33 572.4 1835.2 573.6C1838.07 574.733 1841.23 575.3 1844.7 575.3C1848.5 575.3 1851.57 574.4 1853.9 572.6C1856.23 570.8 1857.4 568.267 1857.4 565C1857.4 563 1857 561.367 1856.2 560.1C1855.4 558.767 1854.03 557.6 1852.1 556.6C1850.17 555.533 1847.37 554.433 1843.7 553.3C1836.37 551.033 1831.07 548.3 1827.8 545.1C1824.53 541.9 1822.9 537.7 1822.9 532.5C1822.9 528.7 1823.9 525.367 1825.9 522.5C1827.9 519.633 1830.67 517.4 1834.2 515.8C1837.8 514.2 1841.87 513.4 1846.4 513.4ZM1921.46 584V514.9H1960.56L1959.16 524.7H1934.66V545.4H1955.96V555.2H1934.66V584H1921.46ZM2002.12 513.4C2008.32 513.4 2013.69 514.8 2018.22 517.6C2022.76 520.4 2026.22 524.5 2028.62 529.9C2031.09 535.3 2032.32 541.8 2032.32 549.4C2032.32 556.933 2031.09 563.4 2028.62 568.8C2026.16 574.2 2022.66 578.333 2018.12 581.2C2013.59 584.067 2008.26 585.5 2002.12 585.5C1995.92 585.5 1990.56 584.1 1986.02 581.3C1981.49 578.5 1977.99 574.4 1975.52 569C1973.06 563.6 1971.82 557.1 1971.82 549.5C1971.82 542.033 1973.06 535.6 1975.52 530.2C1977.99 524.733 1981.49 520.567 1986.02 517.7C1990.62 514.833 1995.99 513.4 2002.12 513.4ZM2002.12 523.5C1996.79 523.5 1992.72 525.6 1989.92 529.8C1987.12 533.933 1985.72 540.5 1985.72 549.5C1985.72 566.767 1991.19 575.4 2002.12 575.4C2007.46 575.4 2011.49 573.333 2014.22 569.2C2017.02 565.067 2018.42 558.467 2018.42 549.4C2018.42 540.4 2017.02 533.833 2014.22 529.7C2011.49 525.567 2007.46 523.5 2002.12 523.5ZM2073.36 556.3H2064.96V584H2051.76V514.9H2072.36C2090.63 514.9 2099.76 521.667 2099.76 535.2C2099.76 539.8 2098.63 543.6 2096.36 546.6C2094.1 549.6 2090.56 552.033 2085.76 553.9L2103.86 584H2088.66L2073.36 556.3ZM2064.96 546.8H2073.16C2077.36 546.8 2080.53 545.9 2082.66 544.1C2084.86 542.233 2085.96 539.267 2085.96 535.2C2085.96 531.467 2084.83 528.767 2082.56 527.1C2080.36 525.367 2076.86 524.5 2072.06 524.5H2064.96V546.8ZM2178.3 513.4C2182.5 513.4 2186.16 514 2189.3 515.2C2192.43 516.4 2195.5 518.233 2198.5 520.7L2191.8 528.5C2187.73 525.233 2183.46 523.6 2179 523.6C2173.86 523.6 2169.73 525.667 2166.6 529.8C2163.53 533.933 2162 540.433 2162 549.3C2162 557.967 2163.53 564.4 2166.6 568.6C2169.66 572.8 2173.8 574.9 2179 574.9C2181.73 574.9 2184.16 574.433 2186.3 573.5C2188.43 572.5 2190.7 571.1 2193.1 569.3L2199.3 577.1C2196.96 579.5 2194 581.5 2190.4 583.1C2186.86 584.7 2182.9 585.5 2178.5 585.5C2172.5 585.5 2167.2 584.1 2162.6 581.3C2158 578.5 2154.43 574.4 2151.9 569C2149.36 563.533 2148.1 556.967 2148.1 549.3C2148.1 541.767 2149.4 535.3 2152 529.9C2154.66 524.5 2158.26 520.4 2162.8 517.6C2167.4 514.8 2172.56 513.4 2178.3 513.4ZM2253.53 584V553.1H2228.93V584H2215.73V514.9H2228.93V542.6H2253.53V514.9H2266.83V584H2253.53ZM2303.12 514.9V584H2289.92V514.9H2303.12ZM2339.51 514.9V573.2H2367.21L2365.71 584H2326.31V514.9H2339.51ZM2400.9 514.9C2411.63 514.9 2420.2 517.333 2426.6 522.2C2433.07 527.067 2436.3 536.033 2436.3 549.1C2436.3 561.9 2433.13 570.933 2426.8 576.2C2420.47 581.4 2412.43 584 2402.7 584H2383.9V514.9H2400.9ZM2397.1 524.8V574.1H2403.6C2409.47 574.1 2414.07 572.3 2417.4 568.7C2420.73 565.033 2422.4 558.5 2422.4 549.1C2422.4 542.567 2421.53 537.533 2419.8 534C2418.13 530.4 2415.9 527.967 2413.1 526.7C2410.37 525.433 2407.07 524.8 2403.2 524.8H2397.1ZM2477.34 556.3H2468.94V584H2455.74V514.9H2476.34C2494.61 514.9 2503.74 521.667 2503.74 535.2C2503.74 539.8 2502.61 543.6 2500.34 546.6C2498.08 549.6 2494.54 552.033 2489.74 553.9L2507.84 584H2492.64L2477.34 556.3ZM2468.94 546.8H2477.14C2481.34 546.8 2484.51 545.9 2486.64 544.1C2488.84 542.233 2489.94 539.267 2489.94 535.2C2489.94 531.467 2488.81 528.767 2486.54 527.1C2484.34 525.367 2480.84 524.5 2476.04 524.5H2468.94V546.8ZM2563.98 514.9L2562.58 524.7H2537.08V544H2559.28V553.8H2537.08V574.1H2564.38V584H2523.88V514.9H2563.98ZM2634.9 584H2617.8L2594.1 528.1C2594.7 533.033 2595.14 537.5 2595.4 541.5C2595.74 545.5 2595.9 550.267 2595.9 555.8V584H2583.9V514.9H2600.6L2624.7 570.9C2624.3 568.233 2623.9 564.733 2623.5 560.4C2623.1 556 2622.9 551.633 2622.9 547.3V514.9H2634.9V584Z" fill="#767676"/>
</svg>
