<svg width="263" height="263" viewBox="0 0 263 263" fill="none" xmlns="http://www.w3.org/2000/svg">
<path d="M131.25 0C58.7695 0 0 58.7695 0 131.25C0 203.73 58.7695 262.5 131.25 262.5C203.73 262.5 262.5 203.73 262.5 131.25C262.5 58.7695 203.73 0 131.25 0ZM173.467 133.271L109.482 179.824C109.132 180.076 108.718 180.227 108.287 180.259C107.857 180.292 107.425 180.205 107.041 180.008C106.656 179.811 106.333 179.512 106.108 179.144C105.882 178.775 105.762 178.352 105.762 177.92V84.8731C105.76 84.4402 105.879 84.0155 106.104 83.6459C106.329 83.2762 106.652 82.9762 107.038 82.779C107.423 82.5818 107.855 82.4951 108.287 82.5286C108.718 82.5621 109.132 82.7145 109.482 82.9688L173.467 129.492C173.769 129.706 174.016 129.989 174.186 130.318C174.356 130.647 174.445 131.012 174.445 131.382C174.445 131.752 174.356 132.117 174.186 132.446C174.016 132.775 173.769 133.058 173.467 133.271V133.271Z" fill="#F44A6E"/>
</svg>
